inDegrees=no
num_controls=7
num_derivatives=13
num_iterations=174
num_multipliers=7
num_parameters=0
num_slacks=7
num_states=26
objective=6.016055
objective_accelerations=0.370837
objective_balance=0.045998
objective_effort=0.415294
objective_height=5.095022
objective_ligament=0.088904
solver_duration=1552.974231
status=Solve_Succeeded
success=true
DataType=double
version=3
OpenSimVersion=4.4-2022-07-23-0e9fedc
endheader
time	/jointset/ground_pelvis/pelvis_tilt/value	/jointset/ground_pelvis/pelvis_tx/value	/jointset/ground_pelvis/pelvis_ty/value	/jointset/hip_r/hip_flexion_r/value	/jointset/hip_r/hip_adduction_r/value	/jointset/hip_r/hip_rotation_r/value	/jointset/back/lumbar_extension/value	/jointset/patellofemoral_r/patellar_flexion_r/value	/jointset/knee_r/knee_flexion_r/value	/jointset/knee_r/knee_adduction_r/value	/jointset/knee_r/knee_rotation_r/value	/jointset/ankle_r/ankle_angle_r/value	/jointset/subtalar_r/subtalar_angle_r/value	/jointset/ground_pelvis/pelvis_tilt/speed	/jointset/ground_pelvis/pelvis_tx/speed	/jointset/ground_pelvis/pelvis_ty/speed	/jointset/hip_r/hip_flexion_r/speed	/jointset/hip_r/hip_adduction_r/speed	/jointset/hip_r/hip_rotation_r/speed	/jointset/back/lumbar_extension/speed	/jointset/patellofemoral_r/patellar_flexion_r/speed	/jointset/knee_r/knee_flexion_r/speed	/jointset/knee_r/knee_adduction_r/speed	/jointset/knee_r/knee_rotation_r/speed	/jointset/ankle_r/ankle_angle_r/speed	/jointset/subtalar_r/subtalar_angle_r/speed	/forceset/tau_hip_flexion_r	/forceset/tau_hip_adduction_r	/forceset/tau_hip_rotation_r	/forceset/tau_knee_flexion_r	/forceset/tau_ankle_angle_r	/forceset/tau_subtalar_angle_r	/forceset/tau_lumbar_extension	lambda_cid13_p0	lambda_cid14_p0	lambda_cid14_p1	lambda_cid14_p2	lambda_cid14_p3	lambda_cid14_p4	lambda_cid14_p5	/jointset/ground_pelvis/pelvis_tilt/accel	/jointset/ground_pelvis/pelvis_tx/accel	/jointset/ground_pelvis/pelvis_ty/accel	/jointset/hip_r/hip_flexion_r/accel	/jointset/hip_r/hip_adduction_r/accel	/jointset/hip_r/hip_rotation_r/accel	/jointset/back/lumbar_extension/accel	/jointset/patellofemoral_r/patellar_flexion_r/accel	/jointset/knee_r/knee_flexion_r/accel	/jointset/knee_r/knee_adduction_r/accel	/jointset/knee_r/knee_rotation_r/accel	/jointset/ankle_r/ankle_angle_r/accel	/jointset/subtalar_r/subtalar_angle_r/accel	gamma_cid13_p0	gamma_cid14_p0	gamma_cid14_p1	gamma_cid14_p2	gamma_cid14_p3	gamma_cid14_p4	gamma_cid14_p5
0.5	-0.08746253637405611	0.06020201900945058	0.8702390720203625	0.6545586767722068	-0.2280815410062352	-0.140846501507192	-0.3103153918497397	0.6606828236070648	0.6606828236070644	0.04018961251332002	0.1745309640329057	0.2643735917889428	0.05973967855939466	-0.2334004291605284	-0.07765567008503373	-0.3003859548937502	1.310288697784298	-0.007829117461927448	0.2392285977560721	-0.60279190085583	1.598305180390859	1.598305180390903	-0.2807973523863059	2.457367073480933e-05	0.6093340625761993	0.1661589299472078	-0.06662141671924195	-0.01827807871807063	0.007255949775032252	-0.3296611410495549	0.04959752280087065	-0.008873134853446112	0.1283613636570956	-33.52110922906827	-26.22394231407327	-4.289259523342984	-3.603318400199641	5.591746348990099	-670.9948326834993	60.4104164395055	0.05405971964625635	0.2096044003120244	-0.3356907803060361	-0.7379092491542899	-0.0720224170662075	-0.5197246005494731	1.157193227654659	-1.024713416954558	-1.024713416954612	0.3951263348855789	0.0002267375490037854	-0.4716643599433974	-0.08805862130060256	-1.001343741603503e-07	-1.399332544199511e-07	4.997004237579693e-07	-1.178729853207881e-06	2.863184145369393e-08	-1.762604348227242e-07	8.571218824665314e-07
0.51	-0.08979358769475521	0.05943607981169616	0.8672190692209196	0.6676227111366263	-0.2281641412351319	-0.1384791582128191	-0.3162844612314609	0.6766122297984852	0.6766122297984757	0.03740366211950855	0.1745311555099938	0.2704422570750716	0.06139554219260487	-0.2327790717344639	-0.07552016381318617	-0.3035463037477723	1.302330036154901	-0.008691375346801386	0.2342431109871111	-0.5909321661970135	1.587340891503846	1.587340891503834	-0.2763613062888898	1.116669363321394e-05	0.6043140414732153	0.1649832342789335	-0.07169352679073393	-0.01665995083348608	0.007904767335316568	-0.332262686834169	0.0451699581766682	-0.008170159408734591	0.1330595850163487	-32.6501454673712	-27.76308130584566	-4.349871962009201	-3.48351698201535	6.15442154369223	-673.9189330901344	60.30682920118509	0.07077631950145098	0.2173310245783294	-0.2959963901226255	-0.8530808629455769	-0.09355353621254117	-0.4876739811215157	1.213834978940029	-1.167542366586961	-1.167542366595456	0.472556031822114	-0.002710124322892737	-0.5299214658346185	-0.1369748752686935	-8.636436779151634e-08	-1.076558214741526e-07	5.279912658137545e-07	-9.222259850337707e-07	6.587368375601272e-09	-1.417121166665309e-07	7.472649053850259e-07
0.52	-0.09211750492810901	0.05869185713345203	0.8641695050425019	0.6806015116361331	-0.228255409255284	-0.1361616124393427	-0.3221322389878044	0.6924249419526209	0.6924249419526165	0.03466301464359801	0.1745310957755363	0.2764581720540989	0.06303871890199669	-0.2319736116918128	-0.07331236618297435	-0.3062982306887532	1.293241924800986	-0.009562675712263331	0.2292690935760551	-0.5785335757804163	1.574966372936332	1.574966372936263	-0.2717367688053859	-2.566864279832147e-05	0.5987840011558779	0.1636215451835494	-0.07676563686220274	-0.01504182294887415	0.008553584895750383	-0.3348642326187848	0.04074239355246903	-0.007467183963994174	0.1377578063756178	-31.76161859257499	-29.30935158374864	-4.408503455900894	-3.367721039208788	6.711722749440531	-676.9598408946093	60.27016820517805	0.09088024296382892	0.2240626719846693	-0.2540063976977796	-0.9637991940574668	-0.07383091318373493	-0.5174307289684873	1.264964379210903	-1.306759353055117	-1.306759353054952	0.4328246121029964	-0.004458934317030705	-0.573668202814355	-0.1252573067225371	-6.673225098078919e-08	-4.621165650704184e-08	6.737738515657287e-07	-4.372013506129701e-07	-4.512682916032004e-08	-7.810157826612894e-08	6.004816666081167e-07
0.53	-0.09443241213022753	0.05797003234207368	0.8610945187573591	0.6934838585832984	-0.2283550413399161	-0.1338951000841269	-0.3278535268721359	0.7081069305293062	0.7081069305293021	0.03196801550606284	0.1745312458577327	0.2824163723743391	0.06466791932194958	-0.230977041324984	-0.07104370142434939	-0.3086270059568203	1.283043192710266	-0.01036853255759475	0.2240682439258943	-0.5656467832329645	1.561202464760685	1.561202464760745	-0.2672075796890772	3.381940426212552e-05	0.5927719528833684	0.1621803236035278	-0.08170767972700452	-0.01340958573696077	0.009225335255267978	-0.3375990441416939	0.03651101249543217	-0.006962732603146999	0.1423459832875996	-30.86057544848221	-30.80781868388079	-4.560899565730205	-3.21879682916134	7.273762107322468	-680.0506490990957	60.0940009323212	0.1086619160869588	0.2295875195045973	-0.2115189719190102	-1.075552507309636	-0.08464950389234983	-0.516251544455185	1.31211937068719	-1.445526911696104	-1.445526911676736	0.4713843384418129	0.007852407056546747	-0.6276089528807921	-0.1591904615260756	-4.685031177763751e-08	2.286904983661836e-08	8.590300330220606e-07	9.027252891429487e-08	-1.072210566947075e-07	-2.131102394422229e-09	4.736483179921386e-07
0.54	-0.09673643033217652	0.05727115802662266	0.8579984035434239	0.706258689751406	-0.2284628692797673	-0.1316795641176752	-0.3334436302953572	0.7236444159518546	0.7236444159518621	0.0293199919150762	0.1745313307669842	0.2883119250491718	0.06628158035052474	-0.2297958116563803	-0.06872227099750775	-0.3105240164472545	1.271738768990343	-0.01120184675029426	0.2190738158191066	-0.5522966835585338	1.546065742109971	1.54606574211016	-0.2623416594908899	-3.870323512156034e-05	0.5862544720743934	0.1605136669081455	-0.08664972259177588	-0.01177734852503012	0.009897085614786649	-0.3403338556645932	0.03227963143840777	-0.006458281242245866	0.1469341601996021	-29.95484437769866	-32.31169233995632	-4.713284063246834	-3.070968702541256	7.834685947576014	-683.224616363305	59.94579840303405	0.1278121033190578	0.2346158056277968	-0.167653442171188	-1.18493751989786	-0.07932238265725029	-0.476146420293861	1.357625804606781	-1.581322248068262	-1.581322248068262	0.5001708284785527	-0.03086107160590675	-0.6747547101076575	-0.1703443297946476	-2.669197333180336e-08	1.003986955756099e-07	1.087959128874704e-06	6.647115306870103e-07	-1.807995727380362e-07	8.751419791362186e-08	3.688871882776164e-07
0.55	-0.09902785997450246	0.05659574465508976	0.8548854861395239	0.7189152794053612	-0.2285786897627836	-0.1295151969251415	-0.338897911468978	0.7390238772771796	0.7390238772771959	0.02671999937926711	0.1745312871566336	0.2941400230786773	0.06787819997180868	-0.228460986378761	-0.06635188893609445	-0.3119845384021034	1.259398830425891	-0.01196667232972753	0.213822912385154	-0.5384952807601728	1.529606371607099	1.529606371607271	-0.2576114030184293	1.799847531834646e-05	0.5792881005188265	0.1587735478441279	-0.09132205985282663	-0.01059310787470885	0.0105045995497532	-0.3434095383248492	0.02851332539476517	-0.005773711314005419	0.1513115525887482	-29.04557097292124	-33.65710253370245	-4.739350314325475	-2.966521094475411	8.274060197074407	-686.4127086902754	60.08769420512412	0.140697556449306	0.239482375132042	-0.1239854002276752	-1.285556252268375	-0.07546318850315703	-0.5460279719360365	1.401038078504286	-1.711264014308041	-1.711264014310616	0.4664852286005546	0.02233991970406936	-0.719167588830481	-0.1810463352119502	-1.224742320798333e-08	1.512954002507239e-07	1.226652598156991e-06	1.037017799302735e-06	-2.280973024389769e-07	1.46005122984066e-07	3.082114076453135e-07
0.5600000000000001	-0.1013050654007641	0.05594428169791826	0.8517602167504581	0.73144306282816	-0.2287022386101982	-0.1274026319003317	-0.3442122505024036	0.7542321409848941	0.7542321409849189	0.02416871584255782	0.174531491388858	0.2998961395505172	0.06945637827435022	-0.2269509684425117	-0.0639321881252239	-0.3129944134804253	1.245977522759474	-0.01274751962581882	0.2087133822715853	-0.5243082555196876	1.51182621858777	1.511826218587924	-0.2525998596671403	1.086527916263544e-05	0.5718581605412845	0.1568254031598465	-0.09599439711385294	-0.009408867224391094	0.01111211348468543	-0.3464852209850995	0.02474701935112233	-0.005089141385758235	0.1556889449779153	-28.13358815154628	-35.0095941891249	-4.766408948976058	-2.862196691739051	8.724202381879742	-689.7107200803391	60.22254406694926	0.1628506350452917	0.244479555519051	-0.07752406686580009	-1.401211340290563	-0.08252672598875899	-0.4478717562170891	1.434750293031722	-1.845478751359638	-1.845478751359657	0.5564282042440802	-0.04362805292507899	-0.7674683945029164	-0.2119494538473534	-4.659419070580054e-09	1.70232575649186e-07	1.257063315554853e-06	1.166764788130079e-06	-2.43858088529053e-07	1.671107977693916e-07	3.004380459116721e-07
0.5700000000000001	-0.1035663506275851	0.05531721704760319	0.8486270968779908	0.743831470736974	-0.228833488114908	-0.1253411590080834	-0.3493828431081962	0.7692562139706737	0.7692562139706834	0.02166806393181926	0.174531614047991	0.3055757681735645	0.07101433532515726	-0.2252769596570965	-0.06147629830245705	-0.3135539616788361	1.231536521719321	-0.01349834304218641	0.2035813296487122	-0.5097569664654164	1.492784582492237	1.492784582492256	-0.2475177823417013	1.229896168471941e-05	0.5639982588142904	0.154742335620478	-0.1005643853397443	-0.008036370896054083	0.01160872729398521	-0.3494496514327423	0.02096908679211572	-0.004472051083586125	0.1599510447306407	-27.21996591685365	-36.36450276023232	-4.83129064477198	-2.742598970245711	9.199507910189242	-692.9055869615499	60.25738187156709	0.174056970716913	0.2467596857719538	-0.03379448633489907	-1.490655318327012	-0.07044874407817897	-0.5457847508821105	1.473313087876545	-1.964075376540594	-1.964075376560695	0.4862368728183638	0.02207927929302314	-0.805682387725396	-0.20968987651597	-4.106174971756761e-10	1.777664812964303e-07	1.258322354302686e-06	1.210366560150445e-06	-2.4935041501783e-07	1.754324263812634e-07	3.103453500263721e-07
